<svg width="128" height="32" viewBox="0 0 128 32" fill="none" xmlns="http://www.w3.org/2000/svg">
<path d="M93.9972 14.3634C93.6014 6.31894 86.9417 -0.000631046 78.8606 0C74.7365 0 70.6791 2.68184 67.5959 7.41741L65 6.39266L66.6216 17.3317L75.3172 10.4676L72.9096 9.5163C74.7776 7.00243 76.9232 5.54859 78.8577 5.54859C83.9427 5.5477 88.1451 9.50134 88.4371 14.561V29.2278C88.4371 30.7589 89.6824 32 91.2185 32C92.7547 32 94 30.7589 94 29.2278V14.4946L93.9972 14.3634Z" fill="white"/>
<path fill-rule="evenodd" clip-rule="evenodd" d="M66.7488 21.9256V29.1949C66.7488 30.7444 67.98 32.0005 69.4987 32.0005C71.0175 32.0005 72.2487 30.7444 72.2487 29.1949V17.5005L66.7488 21.9256ZM72.2605 17.491C72.2619 17.9013 72.2621 18.0189 72.2598 17.4916L72.2605 17.491Z" fill="#2CE080"/>
<path fill-rule="evenodd" clip-rule="evenodd" d="M55.5013 14.2091L61.0012 9.80145V2.79452C61.0012 1.25115 59.77 0 58.2513 0C56.7325 0 55.5013 1.25115 55.5013 2.79452V14.2091ZM55.4891 14.2188L55.4887 14.2191C55.4883 14.0722 55.4883 14.0496 55.4891 14.2188ZM57.4038 22.6862C57.6952 22.7733 58.0007 22.7692 58.3055 22.6862H57.4038Z" fill="#2CE080"/>
<path d="M19.9518 16.0061L31.1827 4.76803C32.1953 3.66701 32.1603 1.96361 31.1033 0.905138C30.0464 -0.153335 28.343 -0.190813 27.2405 0.820148L16.0025 12.0511L4.77158 0.820148C3.68141 -0.271993 1.91229 -0.273584 0.820148 0.816593C-0.271993 1.90677 -0.273584 3.67589 0.816593 4.76803L12.0546 16.0061L0.823702 27.237C-0.218014 28.3338 -0.196867 30.0607 0.871395 31.1316C1.93966 32.2026 3.66648 32.2281 4.7659 31.1891L15.9968 19.9511L27.2405 31.1891C28.3322 32.2731 30.095 32.2699 31.1826 31.1819C32.2702 30.0938 32.2728 28.3311 31.1884 27.2398L19.9518 16.0061Z" fill="#2CE080"/>
<path fill-rule="evenodd" clip-rule="evenodd" d="M96 16.0047C95.9974 7.16903 103.157 0.00387156 111.993 1.53323e-06C116.238 -0.00185537 120.309 1.68303 123.311 4.68382C126.313 7.6846 128 11.7553 128 16C128 24.8356 120.838 31.9987 112.002 32C103.167 32.0013 96.0026 24.8403 96 16.0047ZM122.285 13.9548C121.309 9.04336 117 5.5048 111.993 5.50298C109.206 5.49421 106.532 6.60118 104.567 8.57689C101.026 12.1174 100.479 17.6662 103.261 21.8301C106.042 25.994 111.377 27.6134 116.004 25.6982C120.631 23.7829 123.26 18.8663 122.285 13.9548Z" fill="#2CE080"/>
<path d="M33.5 17.6366C33.8958 25.6811 40.5562 32.0006 48.6381 32C52.7625 32 56.819 29.3182 59.9038 24.584L62.5 25.6073L60.8769 14.6683L52.1818 21.5366L54.5896 22.4879C52.7214 25.0032 50.5742 26.4556 48.6409 26.4556C43.5526 26.4569 39.349 22.4976 39.0635 17.4348V2.77218C39.0635 1.24115 37.818 0 36.2817 0C34.7454 0 33.5 1.24115 33.5 2.77218V17.5054L33.5 17.6366Z" fill="white"/>
</svg>
